<?xml version="1.0" encoding="UTF-8"?><svg id="Layer_1" xmlns="http://www.w3.org/2000/svg" width="2040" height="1938" viewBox="0 0 2040 1938"><defs><style>.cls-1{fill:#231f20;}</style></defs><polygon class="cls-1" points="1775.54 936.7 1775.54 797.95 1762.59 790.56 1775.54 936.7"/><polygon class="cls-1" points="1879.37 717.54 1879.37 869.56 1899.75 853.76 1879.37 717.54"/><polygon class="cls-1" points="1871.16 936.7 1764.44 811.44 1786.24 796.38 1871.16 936.7"/><polygon class="cls-1" points="1786.38 717.54 1893.09 842.8 1871.3 857.86 1786.38 717.54"/><path class="cls-1" d="M494.13,861.27h-59.17l30.26-82.37,28.91,82.37ZM436.31,860.33h56.49l-27.6-78.63-28.89,78.63Z"/><path class="cls-1" d="M771.32,1196.97h-103.47l52.91-133.84,50.56,133.84ZM669.24,1196.03h100.72l-49.21-130.29-51.5,130.29Z"/><path class="cls-1" d="M206.95,810.67h-53.04v-44.64h53.37c28.56,0,37.27,5.02,37.27,21.5,0,8.79-3.56,16-9.75,19.79h0c-4.28,2.63-10.27,3.36-27.85,3.36ZM154.85,809.73h52.1c17.37,0,23.25-.69,27.35-3.22h0c5.91-3.61,9.3-10.53,9.3-18.98,0-15.75-8.49-20.56-36.33-20.56h-52.43v42.76Z"/><path class="cls-1" d="M1509.07,888.54c-38.25,0-57.64-20.94-57.64-62.24,0-38.87,20.35-60.27,57.31-60.27,18.78,0,33.18,5.22,42.81,15.51,9.62,10.29,14.5,25.68,14.5,45.75,0,40.08-19.71,61.26-56.99,61.26ZM1508.75,766.97c-36.35,0-56.37,21.07-56.37,59.33,0,40.68,19.08,61.3,56.7,61.3s56.04-20.86,56.04-60.32-18.97-60.31-56.37-60.31Z"/><path class="cls-1" d="M1436.45,1321.49h-425.55v-360.49h148.86v267.91h276.69v92.58ZM1011.84,1320.55h423.67v-90.7h-276.69v-267.91h-146.97v358.6ZM978.44,1321.49h-162.85l-16.24-32.88h-157.18l-14.5,32.88h-155.9l.28-.66,155-359.83h196.1l.12.28,155.16,360.2ZM816.18,1320.55h160.83l-154.47-358.6h-194.86l-154.47,358.6h153.85l14.5-32.88h158.38l16.24,32.88ZM1509.73,944.4c-54.75,0-89.62-9.27-116.61-30.99-23.21-18.9-34.02-46.89-34.02-88.1,0-37.12,11.76-66.22,34.02-84.15h0c26.66-21.72,61.24-30.99,115.62-30.99s88.64,9.27,115.62,30.99c22.57,17.99,34.02,46.97,34.02,86.12s-11.92,69.06-36.45,88.39c-24.52,19.33-61.23,28.73-112.21,28.73ZM1508.75,711.11c-54.15,0-88.55,9.2-115.03,30.78h0c-22.03,17.75-33.67,46.6-33.67,83.42,0,40.9,10.7,68.66,33.67,87.36,26.8,21.57,61.5,30.78,116.02,30.78,50.76,0,87.27-9.33,111.63-28.53,24.28-19.14,36.09-47.81,36.09-87.65s-11.33-67.58-33.66-85.39c-26.81-21.58-61.21-30.78-115.04-30.78ZM1064.19,944.07c-47.3,0-82.54-6.21-104.71-18.46-23.9-12.94-33.42-27.22-36.38-54.58l-.06-.52h117.1l.14.22c7.49,12.05,17.98,16.53,38.7,16.53,19.25,0,29.43-4.72,29.43-13.66,0-5.85-2.85-9.05-9.84-11.05-7.02-2.01-11.81-2.68-62.02-7.54-24.61-2.3-51.73-7.59-69.11-13.49-27.32-8.56-42.38-28.21-42.38-55.32,0-49.75,48.68-76.04,140.77-76.04,46.53,0,81.44,7.32,103.76,21.76,18,11.46,26.43,24.04,33.38,49.89l.16.59h-110.35l-.12-.3c-5.13-13.47-17.52-19.74-38.99-19.74-17.14,0-27.79,5.36-27.79,13.99,0,10.45,7.66,12.43,74.49,19.25,37.96,3.86,49.53,6.08,68.79,13.17,26.64,10.2,40.72,30.12,40.72,57.61s-11.78,45.73-36.02,58.61c-24.14,12.83-60.02,19.07-109.68,19.07ZM924.09,871.46c2.99,26.65,12.42,40.64,35.84,53.33,22.04,12.17,57.12,18.34,104.26,18.34,49.5,0,85.23-6.2,109.23-18.96,23.9-12.71,35.52-31.61,35.52-57.78s-13.87-46.69-40.11-56.73c-19.16-7.06-30.69-9.26-68.55-13.11-68.3-6.96-75.34-8.85-75.34-20.18,0-9.21,11.01-14.93,28.73-14.93,21.75,0,34.39,6.37,39.75,20.04h108.48c-6.86-25.18-15.19-37.52-32.82-48.74-22.16-14.34-56.9-21.61-103.25-21.61-91.48,0-139.83,25.97-139.83,75.1,0,26.66,14.82,45.99,41.73,54.42,17.32,5.88,44.36,11.16,68.9,13.45,50.29,4.87,55.09,5.55,62.18,7.57,7.38,2.11,10.53,5.68,10.53,11.95,0,6.66-5.27,14.6-30.37,14.6-20.7,0-31.77-4.7-39.36-16.76h-115.53ZM756.98,944.07c-47.3,0-82.53-6.21-104.71-18.46-23.9-12.94-33.42-27.22-36.38-54.58l-.06-.52h117.1l.14.22c7.49,12.05,17.98,16.53,38.7,16.53,19.25,0,29.43-4.72,29.43-13.66,0-5.85-2.85-9.05-9.84-11.05-7.02-2.01-11.81-2.68-62.02-7.54-24.6-2.3-51.73-7.59-69.11-13.49-27.32-8.56-42.38-28.21-42.38-55.32,0-49.75,48.68-76.04,140.77-76.04,46.53,0,81.44,7.32,103.76,21.76,18,11.46,26.43,24.04,33.38,49.89l.16.59h-110.35l-.12-.3c-5.13-13.47-17.52-19.74-38.99-19.74-17.14,0-27.79,5.36-27.79,13.99,0,10.45,7.66,12.43,74.49,19.25,37.96,3.86,49.53,6.08,68.79,13.17,26.64,10.2,40.72,30.12,40.72,57.61s-11.78,45.73-36.02,58.61c-24.14,12.83-60.02,19.07-109.68,19.07ZM616.88,871.46c2.99,26.65,12.42,40.64,35.84,53.33,22.04,12.17,57.12,18.34,104.26,18.34,49.5,0,85.23-6.2,109.23-18.96,23.9-12.71,35.52-31.61,35.52-57.78s-13.87-46.69-40.11-56.73c-19.16-7.06-30.69-9.26-68.55-13.11-68.3-6.96-75.34-8.85-75.34-20.18,0-9.21,11.01-14.93,28.73-14.93,21.75,0,34.4,6.37,39.75,20.04h108.47c-6.85-25.18-15.19-37.52-32.82-48.74-22.16-14.34-56.9-21.61-103.25-21.61-91.48,0-139.83,25.97-139.83,75.1,0,26.66,14.82,45.99,41.73,54.42,17.32,5.88,44.36,11.16,68.9,13.45,50.29,4.87,55.09,5.55,62.19,7.57,7.38,2.11,10.53,5.68,10.53,11.95,0,6.66-5.27,14.6-30.37,14.6-20.7,0-31.77-4.7-39.36-16.76h-115.53ZM1325.55,937.17h-84.73v-220.1h84.73v220.1ZM1241.76,936.23h82.84v-218.21h-82.84v218.21ZM611.46,937.17h-92.67l-9.2-20.04h-88.75l-8.21,20.04h-88.74l88.11-220.1h111.37l.12.3,87.99,219.8ZM519.4,936.23h90.67l-87.35-218.21h-110.09l-87.35,218.21h86.72l8.21-20.04h89.99l9.2,20.04Z"/><path class="cls-1" d="M154.38,863.1h80.5c41.07,0,54.54-2.3,69.66-11.17,19.06-11.17,29.24-32.53,29.24-61.44,0-25.63-8.54-46-24.31-57.83-15.77-11.5-33.19-15.11-75.24-15.11h-93.44c-22.29,69.78-35.53,143.24-38.39,219.16h51.99v-73.6ZM154.38,766.5h52.9c28.26,0,36.8,4.93,36.8,21.03,0,8.87-3.61,15.77-9.53,19.39-4.27,2.63-10.51,3.29-27.6,3.29h-52.57v-43.7Z"/><path class="cls-1" d="M519.09,936.7h91.67l-87.73-219.16h-110.73l-87.73,219.16h87.73l8.21-20.04h89.37l9.2,20.04ZM435.64,860.8l29.57-80.5,28.26,80.5h-57.83Z"/><path class="cls-1" d="M771.77,887.74c-20.7,0-31.54-4.6-39.1-16.76h-116.31c2.96,27.27,12.49,41.4,36.14,54.21,22.01,12.16,57.5,18.4,104.49,18.4,98.24,0,145.23-24.97,145.23-77.21,0-27.27-13.8-46.99-40.41-57.17-18.73-6.9-29.9-9.2-68.67-13.14-67.69-6.9-74.91-8.87-74.91-19.71,0-8.87,10.84-14.46,28.26-14.46,21.69,0,34.17,6.24,39.43,20.04h109.41c-6.9-25.63-15.11-38.11-33.19-49.61-22.34-14.46-56.84-21.69-103.5-21.69-92,0-140.3,25.96-140.3,75.57,0,26.94,14.79,46.33,42.06,54.87,17.41,5.91,44.36,11.17,69,13.47,50.93,4.93,55.2,5.59,62.1,7.56,6.9,1.97,10.19,5.26,10.19,11.5,0,9.2-10.19,14.13-29.9,14.13Z"/><path class="cls-1" d="M1078.98,887.74c-20.7,0-31.54-4.6-39.1-16.76h-116.31c2.96,27.27,12.49,41.4,36.14,54.21,22.01,12.16,57.5,18.4,104.49,18.4,98.24,0,145.23-24.97,145.23-77.21,0-27.27-13.8-46.99-40.41-57.17-18.73-6.9-29.9-9.2-68.67-13.14-67.69-6.9-74.91-8.87-74.91-19.71,0-8.87,10.84-14.46,28.26-14.46,21.68,0,34.17,6.24,39.43,20.04h109.41c-6.9-25.63-15.11-38.11-33.19-49.61-22.34-14.46-56.84-21.69-103.5-21.69-92,0-140.3,25.96-140.3,75.57,0,26.94,14.79,46.33,42.06,54.87,17.41,5.91,44.36,11.17,69,13.47,50.93,4.93,55.2,5.59,62.1,7.56,6.9,1.97,10.19,5.26,10.19,11.5,0,9.2-10.19,14.13-29.9,14.13Z"/><rect class="cls-1" x="1241.29" y="717.54" width="83.79" height="219.16"/><path class="cls-1" d="M1393.42,913.04c26.94,21.69,61.44,30.89,116.31,30.89,100.87,0,148.18-37.46,148.18-116.64,0-39.1-11.17-67.69-33.84-85.76-26.94-21.69-61.11-30.89-115.33-30.89s-88.71,9.2-115.33,30.89c-22.01,17.74-33.84,46.99-33.84,83.79,0,41.4,10.84,69,33.84,87.73ZM1508.75,766.5c37.46,0,56.84,20.7,56.84,60.79s-19.39,60.79-56.51,60.79-57.17-20.7-57.17-61.77c0-38.77,20.04-59.8,56.84-59.8Z"/><path class="cls-1" d="M1879.37,787.53c0,24.97,3.94,48.63,11.17,67.36h-2.63c-14.79-30.56-16.43-33.19-32.86-54.21l-68.67-83.13h-94.63v219.16h83.79v-78.53c0-24.97-2.3-38.77-9.86-60.46h2.63c10.51,24.97,17.41,36.8,30.56,53.23l72.29,85.76h65.03c-2.87-75.92-16.1-149.38-38.39-219.16h-18.42v69.99Z"/><path class="cls-1" d="M210.29,1321.02h147.92v-267.9h149.08v-91.64H101.83c-.02,2.19-.04,4.37-.04,6.57,0,28.7,1.5,57.08,4.39,85.07h104.11v267.9Z"/><path class="cls-1" d="M627.37,961.47l-154.88,359.54h154.88l14.5-32.88h157.78l16.24,32.88h161.84l-154.88-359.54h-195.48ZM668.55,1196.5l52.21-132.07,49.89,132.07h-102.09Z"/><polygon class="cls-1" points="1159.29 961.47 1011.37 961.47 1011.37 1321.02 1435.98 1321.02 1435.98 1229.38 1159.29 1229.38 1159.29 961.47"/><path class="cls-1" d="M1822.3,1089.77l113.9-90.94c.38-10.22.58-20.48.58-30.78,0-2.19-.03-4.38-.04-6.57h-154.47l-150.82,135.3v-135.3h-147.92v359.54h147.92v-91.1l67.87-59.83,106.73,150.93h51.31c18.46-39.04,33.95-79.59,46.22-121.4l-81.28-109.85Z"/><path class="cls-1" d="M1019.29,1938c-136.78,0-269.51-25.53-394.51-75.87-120.84-48.67-229.39-118.38-322.64-207.18-93.4-88.95-166.75-192.58-218.03-308.02C30.96,1227.22,4,1100.07,4,969s26.96-258.22,80.12-377.92c51.27-115.44,124.63-219.08,218.03-308.02,93.25-88.8,201.8-158.51,322.64-207.18C749.77,25.53,882.5,0,1019.29,0s269.51,25.53,394.51,75.87c120.84,48.67,229.39,118.38,322.64,207.18,93.4,88.95,166.75,192.58,218.03,308.02,53.16,119.7,80.12,246.85,80.12,377.92s-26.96,258.22-80.12,377.92c-51.27,115.44-124.63,219.08-218.03,308.02-93.25,88.8-201.8,158.51-322.64,207.18-124.99,50.35-257.72,75.87-394.51,75.87ZM1019.29,81.05c-515.35,0-934.62,398.33-934.62,887.95s419.27,887.95,934.62,887.95,934.62-398.33,934.62-887.95S1534.64,81.05,1019.29,81.05Z"/></svg>